<svg width="3426" height="2549" xmlns="http://www.w3.org/2000/svg" xmlns:xlink="http://www.w3.org/1999/xlink" overflow="hidden"><defs><clipPath id="clip0"><rect x="595" y="522" width="3426" height="2549"/></clipPath></defs><g clip-path="url(#clip0)" transform="translate(-595 -522)"><path d="M657.564 524 3962.44 524C3994.78 524 4021 550.22 4021 582.564L4021 1039 599 1039 599 582.564C599 550.22 625.22 524 657.564 524Z" fill="#8E2634" fill-rule="evenodd" fill-opacity="0.2"/><rect x="599" y="1036" width="3422" height="853" fill="#1C6AAD" fill-opacity="0.2"/><path d="M3954.03 2881 658.972 2881C623.641 2881 595 2852.36 595 2817.03L595 1883 4018 1883 4018 2817.03C4018 2852.36 3989.36 2881 3954.03 2881Z" fill="#B5CB30" fill-rule="evenodd" fill-opacity="0.2"/><path d="M677.5 2881.5 2318 528.5 3958.5 2881.5Z" stroke="#7F7F7F" stroke-width="6.875" stroke-miterlimit="8" fill="none" fill-rule="evenodd"/><path d="M0 0 2885 2.00007" stroke="#7F7F7F" stroke-width="6.875" stroke-linejoin="round" stroke-miterlimit="10" fill="none" fill-rule="evenodd" transform="matrix(1 0 0 -1 874.5 2601.5)"/><path d="M1112.5 2261.5 3527.5 2264.5" stroke="#7F7F7F" stroke-width="6.875" stroke-linejoin="round" stroke-miterlimit="10" fill="none" fill-rule="evenodd"/><path d="M0 0 1903 4.9998" stroke="#7F7F7F" stroke-width="6.875" stroke-linejoin="round" stroke-miterlimit="10" fill="none" fill-rule="evenodd" transform="matrix(1 0 0 -1 1363.5 1892.5)"/><path d="M0 0 1323 5.00016" stroke="#7F7F7F" stroke-width="6.875" stroke-linejoin="round" stroke-miterlimit="10" fill="none" fill-rule="evenodd" transform="matrix(1 0 0 -1 1657.5 1479.5)"/><path d="M1966.5 1033.5 2672.5 1035.5" stroke="#7F7F7F" stroke-width="6.875" stroke-linejoin="round" stroke-miterlimit="10" fill="none" fill-rule="evenodd"/><text fill="#0D0D0D" font-family="Arial,Arial_MSFontService,sans-serif" font-weight="700" font-size="102" transform="matrix(1 0 0 1 2152.36 870)">Schutz<tspan font-size="102" x="-302.607" y="1855">Stabile persönliche </tspan><tspan font-size="102" x="-135.659" y="1977">Verhältnisse</tspan><tspan font-size="102" x="-884.904" y="1559">Begegnung und Unterstützung im Umfeld</tspan><tspan font-size="102" x="-399.847" y="1172">Betreuung, Förderung, </tspan><tspan font-size="102" x="-184.155" y="1291">(Aus</tspan><tspan font-size="102" x="42.147" y="1291">-</tspan><tspan font-size="102" x="75.949" y="1291">)Bildung</tspan><tspan font-size="102" x="-332.012" y="804">Beratung, Begleitung,</tspan><tspan font-size="102" x="-145.287" y="923">Unterstützung</tspan><tspan font-size="102" x="-67.1382" y="392">Hilfen zur </tspan><tspan font-size="102" x="-82.0342" y="525">Erziehung</tspan><tspan fill="#000000" font-size="58" x="-1442.68" y="2084">Jugendhilfepyramide</tspan><tspan fill="#000000" font-weight="400" font-size="58" x="-1442.68" y="2153">Anpassung für  Landkreis Wetterau nach einem Modell von Prof. Dr. Christian Schrapper, </tspan><tspan fill="#000000" font-weight="400" font-size="58" x="851.879" y="2153">ZfJ</tspan><tspan fill="#000000" font-weight="400" font-size="58" x="948.129" y="2153">Nr. 5/2003, S. 183</tspan></text></g></svg>